RobotoSerifMicroWide-Hairline03ip.ufo
<glyph name="two" format="2">
  <advance width="680"/>
  <unicode hex="0032"/>
  <outline>
    <contour>
      <point x="396" y="45" type="line" smooth="yes"/>
      <point x="490.0" y="45.0"/>
      <point x="521" y="53"/>
      <point x="526" y="88" type="curve" smooth="yes"/>
      <point x="538" y="175" type="line"/>
      <point x="577" y="175" type="line"/>
      <point x="577" y="0.0" type="line"/>
      <point x="58" y="0" type="line"/>
      <point x="58" y="44" type="line"/>
      <point x="367" y="254"/>
      <point x="491" y="312"/>
      <point x="491" y="464" type="curve" smooth="yes"/>
      <point x="491" y="564"/>
      <point x="427" y="605"/>
      <point x="323" y="605" type="curve" smooth="yes"/>
      <point x="230" y="605"/>
      <point x="171" y="579"/>
      <point x="124" y="552" type="curve"/>
      <point x="120" y="572"/>
      <point x="147" y="600"/>
      <point x="147" y="590" type="curve" smooth="yes"/>
      <point x="147" y="427" type="line"/>
      <point x="95" y="427" type="line"/>
      <point x="95" y="587" type="line"/>
      <point x="149" y="620"/>
      <point x="230" y="649"/>
      <point x="326" y="649" type="curve" smooth="yes"/>
      <point x="473" y="649"/>
      <point x="546" y="580"/>
      <point x="546" y="464" type="curve" smooth="yes"/>
      <point x="546" y="303"/>
      <point x="369" y="205"/>
      <point x="95" y="25" type="curve"/>
      <point x="93" y="32"/>
      <point x="99" y="44"/>
      <point x="116" y="45" type="curve"/>
    </contour>
  </outline>
</glyph>
<glyph name="five" format="2">
  <advance width="680"/>
  <unicode hex="0035"/>
  <outline>
    <contour>
      <point x="326" y="-90" type="curve" smooth="yes"/>
      <point x="195" y="-90"/>
      <point x="102" y="-39"/>
      <point x="60" y="52" type="curve"/>
      <point x="105" y="77" type="line"/>
      <point x="149" y="3"/>
      <point x="207" y="-46"/>
      <point x="326" y="-46" type="curve" smooth="yes"/>
      <point x="458" y="-46"/>
      <point x="536" y="26"/>
      <point x="536" y="167" type="curve" smooth="yes"/>
      <point x="536" y="298"/>
      <point x="476" y="351"/>
      <point x="363" y="351" type="curve" smooth="yes"/>
      <point x="271.0" y="351.0"/>
      <point x="214" y="312"/>
      <point x="169" y="240" type="curve"/>
      <point x="125" y="240" type="line"/>
      <point x="125" y="639" type="line"/>
      <point x="540" y="639" type="line"/>
      <point x="530" y="587" type="line"/>
      <point x="154" y="587" type="line"/>
      <point x="166" y="619" type="line"/>
      <point x="166" y="270" type="line"/>
      <point x="162" y="272"/>
      <point x="160" y="261"/>
      <point x="147" y="254" type="curve"/>
      <point x="189" y="347"/>
      <point x="269" y="396"/>
      <point x="373" y="396" type="curve" smooth="yes"/>
      <point x="515.0" y="396.0"/>
      <point x="590" y="312"/>
      <point x="590" y="167" type="curve" smooth="yes"/>
      <point x="590" y="1"/>
      <point x="477" y="-90"/>
    </contour>
  </outline>
</glyph>
<glyph name="question" format="2">
  <advance width="711"/>
  <unicode hex="003F"/>
  <outline>
    <contour>
      <point x="309" y="423" type="line"/>
      <point x="423" y="435"/>
      <point x="550" y="454"/>
      <point x="550" y="586" type="curve" smooth="yes"/>
      <point x="550.0" y="682.0"/>
      <point x="472" y="718"/>
      <point x="361" y="718" type="curve" smooth="yes"/>
      <point x="255" y="718"/>
      <point x="178" y="688"/>
      <point x="149" y="665" type="curve"/>
      <point x="151" y="689"/>
      <point x="169" y="701.0"/>
      <point x="191" y="704.0" type="curve"/>
      <point x="191" y="553.0" type="line"/>
      <point x="139" y="553.0" type="line"/>
      <point x="139" y="716" type="line"/>
      <point x="173" y="732"/>
      <point x="263" y="762"/>
      <point x="360" y="762.0" type="curve" smooth="yes"/>
      <point x="515" y="762.0"/>
      <point x="604" y="707"/>
      <point x="604" y="588" type="curve" smooth="yes"/>
      <point x="604.0" y="449.0"/>
      <point x="494" y="404"/>
      <point x="357" y="386" type="curve"/>
      <point x="357" y="258.0" type="line"/>
      <point x="309" y="258.0" type="line"/>
    </contour>
    <component base="period" xOffset="151" yOffset="-1"/>
  </outline>
</glyph>
<glyph name="J" format="2">
  <advance width="728"/>
  <unicode hex="004A"/>
  <anchor x="520" y="741.0" name="top"/>
  <outline>
    <contour>
      <point x="358" y="710" type="line"/>
      <point x="358" y="670" type="line"/>
      <point x="406" y="670" type="line" smooth="yes"/>
      <point x="466" y="670"/>
      <point x="496" y="660"/>
      <point x="496" y="630" type="curve" smooth="yes"/>
      <point x="496" y="239" type="line" smooth="yes"/>
      <point x="496" y="64"/>
      <point x="420" y="20"/>
      <point x="290" y="20" type="curve" smooth="yes"/>
      <point x="205" y="20"/>
      <point x="137" y="48"/>
      <point x="121" y="70" type="curve"/>
      <point x="107" y="54"/>
      <point x="110" y="29"/>
      <point x="142" y="21" type="curve"/>
      <point x="142" y="216" type="line"/>
      <point x="90" y="216" type="line"/>
      <point x="90" y="24" type="line"/>
      <point x="115" y="9"/>
      <point x="183" y="-25"/>
      <point x="290" y="-25" type="curve" smooth="yes"/>
      <point x="457" y="-25"/>
      <point x="544" y="50"/>
      <point x="544" y="239" type="curve" smooth="yes"/>
      <point x="544" y="630" type="line" smooth="yes"/>
      <point x="544" y="660"/>
      <point x="574" y="670"/>
      <point x="634" y="670" type="curve" smooth="yes"/>
      <point x="675" y="670" type="line"/>
      <point x="675" y="710" type="line"/>
    </contour>
  </outline>
</glyph>
<glyph name="bar" format="2">
  <advance width="294"/>
  <unicode hex="007C"/>
  <outline>
    <contour>
      <point x="124" y="780" type="line"/>
      <point x="124" y="-158" type="line"/>
      <point x="170" y="-158" type="line"/>
      <point x="170" y="780" type="line"/>
    </contour>
  </outline>
</glyph>
<glyph name="yen" format="2">
  <advance width="680"/>
  <unicode hex="00A5"/>
  <outline>
    <contour>
      <point x="96" y="364" type="line"/>
      <point x="96" y="328" type="line"/>
      <point x="592" y="328" type="line"/>
      <point x="592" y="364" type="line"/>
    </contour>
    <contour>
      <point x="96" y="211" type="line"/>
      <point x="96" y="175" type="line"/>
      <point x="592" y="175" type="line"/>
      <point x="592" y="211" type="line"/>
    </contour>
    <contour>
      <point x="321" y="355" type="line"/>
      <point x="321" y="76" type="line" smooth="yes"/>
      <point x="321.0" y="47.0"/>
      <point x="281" y="40"/>
      <point x="227" y="40" type="curve" smooth="yes"/>
      <point x="203" y="40" type="line"/>
      <point x="203" y="0" type="line"/>
      <point x="485" y="0" type="line"/>
      <point x="485" y="40" type="line"/>
      <point x="461" y="40" type="line" smooth="yes"/>
      <point x="407" y="40"/>
      <point x="367.0" y="47.0"/>
      <point x="367" y="76" type="curve" smooth="yes"/>
      <point x="367" y="355" type="line"/>
    </contour>
    <contour>
      <point x="363" y="325" type="line"/>
      <point x="547" y="623" type="line" smooth="yes"/>
      <point x="569" y="658"/>
      <point x="589" y="670"/>
      <point x="616" y="670" type="curve" smooth="yes"/>
      <point x="625" y="670" type="line"/>
      <point x="625" y="710" type="line"/>
      <point x="445" y="710" type="line"/>
      <point x="445" y="670" type="line"/>
      <point x="451" y="670" type="line" smooth="yes"/>
      <point x="483" y="670"/>
      <point x="517" y="665"/>
      <point x="521" y="655" type="curve"/>
      <point x="345" y="363" type="line"/>
      <point x="353" y="367" type="line"/>
      <point x="170" y="659" type="line"/>
      <point x="170" y="666"/>
      <point x="197" y="670"/>
      <point x="229" y="670" type="curve" smooth="yes"/>
      <point x="242" y="670" type="line"/>
      <point x="242" y="710" type="line"/>
      <point x="55" y="710" type="line"/>
      <point x="55" y="670" type="line"/>
      <point x="63" y="670" type="line" smooth="yes"/>
      <point x="96.0" y="670.0"/>
      <point x="111" y="664"/>
      <point x="129" y="636" type="curve" smooth="yes"/>
      <point x="325" y="326" type="line"/>
    </contour>
  </outline>
</glyph>
<glyph name="macron" format="2">
  <advance width="530"/>
  <unicode hex="00AF"/>
  <anchor x="265.5" y="565" name="_top"/>
  <outline>
    <contour>
      <point x="95.0" y="760" type="line"/>
      <point x="95.0" y="720" type="line"/>
      <point x="436.0" y="720" type="line"/>
      <point x="436.0" y="760" type="line"/>
    </contour>
  </outline>
</glyph>
<glyph name="hbar" format="2">
  <advance width="791"/>
  <unicode hex="0127"/>
  <outline>
    <contour>
      <point x="428" y="707" type="line"/>
      <point x="76" y="707" type="line"/>
      <point x="76" y="668" type="line"/>
      <point x="428" y="668" type="line"/>
    </contour>
    <contour>
      <point x="744" y="0.0" type="line"/>
      <point x="744" y="39" type="line"/>
      <point x="727" y="39" type="line" smooth="yes"/>
      <point x="667.0" y="39"/>
      <point x="637.0" y="49.0"/>
      <point x="637" y="89" type="curve" smooth="yes"/>
      <point x="637" y="386.0" type="line" smooth="yes"/>
      <point x="637" y="510"/>
      <point x="581" y="576.0"/>
      <point x="456" y="576.0" type="curve" smooth="yes"/>
      <point x="368.0" y="576.0"/>
      <point x="288" y="544"/>
      <point x="193" y="448" type="curve"/>
      <point x="193" y="406" type="line"/>
      <point x="287" y="493"/>
      <point x="355" y="530"/>
      <point x="442" y="530" type="curve" smooth="yes"/>
      <point x="544.0" y="530.0"/>
      <point x="589" y="482"/>
      <point x="589" y="376.0" type="curve" smooth="yes"/>
      <point x="589" y="54" type="line" smooth="yes"/>
      <point x="589.0" y="44.0"/>
      <point x="544.0" y="39.0"/>
      <point x="514" y="39" type="curve" smooth="yes"/>
      <point x="497" y="39" type="line"/>
      <point x="497" y="0.0" type="line"/>
    </contour>
    <contour>
      <point x="294" y="0.0" type="line"/>
      <point x="294" y="39" type="line"/>
      <point x="277" y="39" type="line" smooth="yes"/>
      <point x="247.0" y="39"/>
      <point x="202.0" y="44.0"/>
      <point x="202" y="54" type="curve" smooth="yes"/>
      <point x="202" y="780.0" type="line"/>
      <point x="154" y="780.0" type="line"/>
      <point x="154" y="89" type="line" smooth="yes"/>
      <point x="154" y="49"/>
      <point x="124.0" y="39.0"/>
      <point x="64" y="39" type="curve" smooth="yes"/>
      <point x="47" y="39" type="line"/>
      <point x="47" y="0" type="line"/>
    </contour>
  </outline>
</glyph>
<glyph name="imacron" format="2">
  <advance width="349"/>
  <unicode hex="012B"/>
  <outline>
    <contour>
      <point x="16" y="760" type="line"/>
      <point x="16" y="720" type="line"/>
      <point x="304" y="720" type="line"/>
      <point x="304" y="760" type="line"/>
    </contour>
    <component base="dotlessi"/>
  </outline>
</glyph>
<glyph name="Lslash" format="2">
  <advance width="784"/>
  <unicode hex="0141"/>
  <outline>
    <contour>
      <point x="21" y="174" type="line"/>
      <point x="21" y="221" type="line"/>
      <point x="528" y="548" type="line"/>
      <point x="528" y="501" type="line"/>
    </contour>
    <component base="L"/>
  </outline>
</glyph>
<glyph name="breve" format="2">
  <advance width="530"/>
  <unicode hex="02D8"/>
  <anchor x="265.0" y="565" name="_top"/>
  <outline>
    <contour>
      <point x="265.0" y="675" type="curve" smooth="yes"/>
      <point x="175.0" y="675"/>
      <point x="113.0" y="715"/>
      <point x="110.0" y="824" type="curve"/>
      <point x="157.0" y="824" type="line"/>
      <point x="166.0" y="759"/>
      <point x="192.0" y="722"/>
      <point x="267.0" y="722" type="curve" smooth="yes"/>
      <point x="339.0" y="722"/>
      <point x="367.0" y="761"/>
      <point x="376.0" y="824" type="curve"/>
      <point x="420.0" y="824" type="line"/>
      <point x="417.0" y="715"/>
      <point x="355.0" y="675"/>
    </contour>
  </outline>
</glyph>
<glyph name="hungarumlaut" format="2">
  <advance width="530"/>
  <unicode hex="02DD"/>
  <anchor x="172" y="565" name="_top"/>
  <outline>
    <contour>
      <point x="117" y="797" type="curve" smooth="yes"/>
      <point x="77" y="679" type="line"/>
      <point x="77" y="661" type="line"/>
      <point x="100" y="661" type="line"/>
      <point x="185" y="764" type="line" smooth="yes"/>
      <point x="207" y="790"/>
      <point x="220" y="803"/>
      <point x="220" y="825" type="curve" smooth="yes"/>
      <point x="220" y="848"/>
      <point x="203" y="862"/>
      <point x="178" y="862" type="curve" smooth="yes"/>
      <point x="142" y="862"/>
      <point x="130" y="836"/>
    </contour>
    <contour>
      <point x="305" y="797" type="curve" smooth="yes"/>
      <point x="265" y="679" type="line"/>
      <point x="265" y="661" type="line"/>
      <point x="287" y="661" type="line"/>
      <point x="372" y="764" type="line" smooth="yes"/>
      <point x="395" y="790"/>
      <point x="407" y="803"/>
      <point x="407" y="825" type="curve" smooth="yes"/>
      <point x="407" y="848"/>
      <point x="391" y="862"/>
      <point x="365" y="862" type="curve" smooth="yes"/>
      <point x="330" y="862"/>
      <point x="318" y="836"/>
    </contour>
  </outline>
</glyph>
<glyph name="Germandbls" format="2">
  <advance width="878"/>
  <unicode hex="1E9E"/>
  <outline>
    <contour>
      <point x="611" y="28" type="curve" smooth="yes"/>
      <point x="485" y="28"/>
      <point x="434" y="113"/>
      <point x="406" y="229" type="curve"/>
      <point x="359" y="229" type="line"/>
      <point x="359" y="0" type="line"/>
      <point x="401" y="0" type="line"/>
      <point x="409" y="187" type="line"/>
      <point x="405" y="196"/>
      <point x="391" y="196"/>
      <point x="383" y="183" type="curve"/>
      <point x="413" y="52"/>
      <point x="481" y="-14"/>
      <point x="611" y="-14" type="curve" smooth="yes"/>
      <point x="744" y="-14"/>
      <point x="823" y="66"/>
      <point x="823" y="184" type="curve" smooth="yes"/>
      <point x="823" y="336"/>
      <point x="716" y="368"/>
      <point x="535" y="419" type="curve"/>
      <point x="539" y="398" type="line"/>
      <point x="745" y="670" type="line"/>
      <point x="745" y="710" type="line"/>
      <point x="486" y="710" type="line" smooth="yes"/>
      <point x="266" y="710"/>
      <point x="183" y="614"/>
      <point x="183" y="442" type="curve" smooth="yes"/>
      <point x="183" y="80" type="line" smooth="yes"/>
      <point x="183" y="50"/>
      <point x="153" y="40"/>
      <point x="93" y="40" type="curve" smooth="yes"/>
      <point x="59" y="40" type="line"/>
      <point x="59" y="0" type="line"/>
      <point x="231" y="0" type="line"/>
      <point x="231" y="445" type="line" smooth="yes"/>
      <point x="231" y="585"/>
      <point x="285" y="666"/>
      <point x="486" y="666" type="curve" smooth="yes"/>
      <point x="736" y="666" type="line"/>
      <point x="747" y="672"/>
      <point x="730" y="693"/>
      <point x="710" y="690" type="curve"/>
      <point x="505" y="419" type="line"/>
      <point x="505" y="381" type="line"/>
      <point x="682" y="330"/>
      <point x="772" y="315"/>
      <point x="772" y="185" type="curve" smooth="yes"/>
      <point x="772" y="89"/>
      <point x="717" y="28"/>
    </contour>
  </outline>
</glyph>
<glyph name="Euro" format="2">
  <advance width="680"/>
  <unicode hex="20AC"/>
  <outline>
    <contour>
      <point x="20" y="274" type="line"/>
      <point x="20" y="230" type="line"/>
      <point x="406" y="230" type="line"/>
      <point x="406" y="274" type="line"/>
    </contour>
    <contour>
      <point x="20" y="457" type="line"/>
      <point x="20" y="413" type="line"/>
      <point x="437" y="413" type="line"/>
      <point x="437" y="457" type="line"/>
    </contour>
    <contour>
      <point x="361" y="-25" type="curve" smooth="yes"/>
      <point x="486" y="-25"/>
      <point x="558" y="43"/>
      <point x="596" y="166" type="curve"/>
      <point x="550" y="182" type="line"/>
      <point x="518" y="93"/>
      <point x="479" y="18"/>
      <point x="360" y="18" type="curve" smooth="yes"/>
      <point x="227" y="18"/>
      <point x="158" y="110"/>
      <point x="158" y="355" type="curve" smooth="yes"/>
      <point x="158" y="596"/>
      <point x="238" y="692"/>
      <point x="393" y="692" type="curve" smooth="yes"/>
      <point x="450" y="692"/>
      <point x="513" y="679"/>
      <point x="549" y="663" type="curve"/>
      <point x="550" y="675"/>
      <point x="534" y="701"/>
      <point x="509" y="700" type="curve"/>
      <point x="509" y="567" type="line"/>
      <point x="561" y="567" type="line"/>
      <point x="561" y="707" type="line"/>
      <point x="538" y="718"/>
      <point x="468" y="735"/>
      <point x="394" y="735" type="curve" smooth="yes"/>
      <point x="210" y="735"/>
      <point x="102" y="611"/>
      <point x="102" y="355" type="curve" smooth="yes"/>
      <point x="102" y="86"/>
      <point x="198" y="-25"/>
    </contour>
  </outline>
</glyph>
<glyph name="arrowleft" format="2">
  <advance width="892"/>
  <unicode hex="2190"/>
  <outline>
    <contour>
      <point x="514" y="614" type="line"/>
      <point x="70" y="373" type="line"/>
      <point x="70" y="333" type="line"/>
      <point x="514" y="92" type="line"/>
      <point x="542" y="129" type="line"/>
      <point x="324" y="314" type="line"/>
      <point x="822" y="314" type="line"/>
      <point x="822" y="392" type="line"/>
      <point x="324" y="392" type="line"/>
      <point x="542" y="577" type="line"/>
    </contour>
  </outline>
</glyph>
<glyph name="acute.uc" format="2">
  <advance width="530"/>
  <anchor x="206" y="740" name="_top"/>
  <outline>
    <contour>
      <point x="286" y="898" type="curve" smooth="yes"/>
      <point x="191" y="814" type="line"/>
      <point x="191" y="793" type="line"/>
      <point x="215" y="793" type="line"/>
      <point x="353" y="868" type="line" smooth="yes"/>
      <point x="386" y="885"/>
      <point x="408" y="897"/>
      <point x="408" y="921" type="curve" smooth="yes"/>
      <point x="408" y="941"/>
      <point x="394" y="954"/>
      <point x="370" y="954" type="curve" smooth="yes"/>
      <point x="340" y="954"/>
      <point x="317" y="927"/>
    </contour>
  </outline>
</glyph>
<glyph name="bracketleft.uc" format="2">
  <advance width="340"/>
  <outline>
    <contour>
      <point x="292" y="-38" type="line"/>
      <point x="127" y="-38.0" type="line"/>
      <point x="127" y="708.0" type="line"/>
      <point x="292" y="708" type="line"/>
      <point x="292" y="750.0" type="line"/>
      <point x="79" y="750.0" type="line"/>
      <point x="79" y="-80.0" type="line"/>
      <point x="292" y="-80.0" type="line"/>
    </contour>
  </outline>
</glyph>
<glyph name="brokenbar.uc" format="2">
  <advance width="294"/>
  <outline>
    <contour>
      <point x="170" y="442" type="line"/>
      <point x="170" y="760" type="line"/>
      <point x="124" y="760" type="line"/>
      <point x="124" y="442" type="line"/>
    </contour>
    <contour>
      <point x="124" y="256" type="line"/>
      <point x="124" y="-60" type="line"/>
      <point x="170" y="-60" type="line"/>
      <point x="170" y="256" type="line"/>
    </contour>
  </outline>
</glyph>
<glyph name="cent.proportional" format="2">
  <advance width="614"/>
  <outline>
    <contour>
      <point x="344" y="30" type="curve" smooth="yes"/>
      <point x="201" y="30"/>
      <point x="127" y="107"/>
      <point x="127" y="281" type="curve" smooth="yes"/>
      <point x="127" y="447"/>
      <point x="194" y="533"/>
      <point x="346" y="533" type="curve" smooth="yes"/>
      <point x="425" y="533"/>
      <point x="465" y="518"/>
      <point x="501" y="502" type="curve"/>
      <point x="502" y="521"/>
      <point x="496" y="537"/>
      <point x="483" y="539" type="curve"/>
      <point x="483" y="408" type="line"/>
      <point x="535" y="408" type="line"/>
      <point x="535" y="538" type="line"/>
      <point x="504" y="553"/>
      <point x="447" y="576"/>
      <point x="346" y="576" type="curve" smooth="yes"/>
      <point x="172" y="576"/>
      <point x="73" y="460"/>
      <point x="73" y="281" type="curve" smooth="yes"/>
      <point x="73" y="88"/>
      <point x="181" y="-13"/>
      <point x="344" y="-13" type="curve" smooth="yes"/>
      <point x="443" y="-13"/>
      <point x="525" y="43"/>
      <point x="566" y="125" type="curve"/>
      <point x="527" y="145" type="line"/>
      <point x="491" y="83"/>
      <point x="442" y="30"/>
    </contour>
    <contour>
      <point x="314" y="703" type="line"/>
      <point x="314" y="554" type="line"/>
      <point x="316" y="544" type="line"/>
      <point x="316" y="28" type="line"/>
      <point x="314" y="11" type="line"/>
      <point x="314" y="-166" type="line"/>
      <point x="355" y="-166" type="line"/>
      <point x="355" y="12" type="line"/>
      <point x="353" y="23" type="line"/>
      <point x="353" y="544" type="line"/>
      <point x="355" y="555" type="line"/>
      <point x="355" y="703" type="line"/>
    </contour>
  </outline>
</glyph>
<glyph name="circumflex_acute" format="2">
  <advance width="571"/>
  <anchor x="271" y="565" name="_top"/>
  <outline>
    <contour>
      <point x="503" y="927" type="curve" smooth="yes"/>
      <point x="428" y="819" type="line"/>
      <point x="428" y="801" type="line"/>
      <point x="451" y="801" type="line"/>
      <point x="562" y="899" type="line" smooth="yes"/>
      <point x="589" y="923"/>
      <point x="607" y="938"/>
      <point x="607" y="960" type="curve" smooth="yes"/>
      <point x="607" y="978"/>
      <point x="593" y="989"/>
      <point x="572" y="989" type="curve" smooth="yes"/>
      <point x="541" y="989"/>
      <point x="528" y="962"/>
    </contour>
    <component base="circumflex"/>
  </outline>
</glyph>
<glyph name="circumflex_grave.uc" format="2">
  <advance width="590"/>
  <anchor x="271.5" y="740" name="_top"/>
  <outline>
    <contour>
      <point x="465" y="1040" type="line" smooth="yes"/>
      <point x="442" y="1075"/>
      <point x="430" y="1095"/>
      <point x="399" y="1095" type="curve" smooth="yes"/>
      <point x="378" y="1095"/>
      <point x="364" y="1084"/>
      <point x="364" y="1066" type="curve" smooth="yes"/>
      <point x="364" y="1044"/>
      <point x="377" y="1033"/>
      <point x="404" y="1008" type="curve" smooth="yes"/>
      <point x="512" y="910" type="line"/>
      <point x="536" y="910" type="line"/>
      <point x="536" y="931" type="line"/>
    </contour>
    <component base="circumflex.uc"/>
  </outline>
</glyph>
<glyph name="circumflex_hook.uc" format="2">
  <advance width="575"/>
  <anchor x="271.5" y="740" name="_top"/>
  <outline>
    <contour>
      <point x="341" y="1042" type="line"/>
      <point x="349" y="1105"/>
      <point x="403" y="1145"/>
      <point x="489" y="1145" type="curve" smooth="yes"/>
      <point x="582" y="1145"/>
      <point x="632" y="1113"/>
      <point x="632" y="1056" type="curve" smooth="yes"/>
      <point x="632" y="989"/>
      <point x="570" y="959"/>
      <point x="492" y="956" type="curve"/>
      <point x="515" y="980" type="line"/>
      <point x="515" y="896" type="line"/>
      <point x="465" y="896" type="line"/>
      <point x="465" y="991" type="line"/>
      <point x="533" y="992"/>
      <point x="575" y="996"/>
      <point x="575" y="1055" type="curve" smooth="yes"/>
      <point x="575" y="1095"/>
      <point x="547" y="1107"/>
      <point x="489" y="1107" type="curve" smooth="yes"/>
      <point x="433" y="1107"/>
      <point x="410" y="1091"/>
      <point x="401" y="1042" type="curve"/>
    </contour>
    <component base="circumflex.uc"/>
  </outline>
</glyph>
<glyph name="five.prop" format="2">
  <advance width="630"/>
  <outline>
    <contour>
      <point x="308" y="-90" type="curve" smooth="yes"/>
      <point x="177" y="-90"/>
      <point x="84" y="-39"/>
      <point x="42" y="52" type="curve"/>
      <point x="87" y="77" type="line"/>
      <point x="131" y="3"/>
      <point x="189" y="-46"/>
      <point x="308" y="-46" type="curve" smooth="yes"/>
      <point x="440" y="-46"/>
      <point x="518" y="26"/>
      <point x="518" y="167" type="curve" smooth="yes"/>
      <point x="518" y="298"/>
      <point x="458" y="351"/>
      <point x="345" y="351" type="curve" smooth="yes"/>
      <point x="253.0" y="351.0"/>
      <point x="196" y="312"/>
      <point x="151" y="240" type="curve"/>
      <point x="107" y="240" type="line"/>
      <point x="107" y="639" type="line"/>
      <point x="522" y="639" type="line"/>
      <point x="512" y="587" type="line"/>
      <point x="136" y="587" type="line"/>
      <point x="148" y="619" type="line"/>
      <point x="148" y="270" type="line"/>
      <point x="144" y="272"/>
      <point x="142" y="261"/>
      <point x="129" y="254" type="curve"/>
      <point x="171" y="347"/>
      <point x="251" y="396"/>
      <point x="355" y="396" type="curve" smooth="yes"/>
      <point x="497.0" y="396.0"/>
      <point x="572" y="312"/>
      <point x="572" y="167" type="curve" smooth="yes"/>
      <point x="572" y="1"/>
      <point x="459" y="-90"/>
    </contour>
  </outline>
</glyph>
<glyph name="four.linprop" format="2">
  <advance width="672"/>
  <outline>
    <contour>
      <point x="347" y="0" type="line"/>
      <point x="617" y="0" type="line"/>
      <point x="617" y="40" type="line"/>
      <point x="598" y="40" type="line" smooth="yes"/>
      <point x="538" y="40"/>
      <point x="508" y="50"/>
      <point x="508" y="80" type="curve" smooth="yes"/>
      <point x="508" y="710" type="line"/>
      <point x="450" y="710" type="line"/>
      <point x="460" y="698" type="line"/>
      <point x="460" y="80" type="line" smooth="yes"/>
      <point x="460" y="50"/>
      <point x="430" y="40"/>
      <point x="370" y="40" type="curve" smooth="yes"/>
      <point x="347" y="40" type="line"/>
    </contour>
    <contour>
      <point x="53" y="222" type="line"/>
      <point x="647" y="222" type="line"/>
      <point x="647" y="263" type="line"/>
      <point x="84" y="263" type="line"/>
      <point x="83" y="247" type="line"/>
      <point x="479" y="706" type="line"/>
      <point x="472" y="710" type="line"/>
      <point x="431" y="710" type="line"/>
      <point x="53" y="275" type="line"/>
    </contour>
  </outline>
</glyph>
<glyph name="four.midprop" format="2">
  <advance width="672"/>
  <outline>
    <contour>
      <point x="50" y="149" type="line"/>
      <point x="657" y="149" type="line"/>
      <point x="657" y="195" type="line"/>
      <point x="70" y="195" type="line"/>
      <point x="82" y="171" type="line"/>
      <point x="490" y="672" type="line"/>
      <point x="482" y="673" type="line"/>
      <point x="441" y="673" type="line"/>
      <point x="50" y="198" type="line"/>
    </contour>
    <contour>
      <point x="512" y="-49" type="line"/>
      <point x="512" y="673" type="line"/>
      <point x="447" y="673" type="line"/>
      <point x="464" y="661" type="line"/>
      <point x="464" y="-49" type="line"/>
    </contour>
  </outline>
</glyph>
<glyph name="grave.uc" format="2">
  <advance width="530"/>
  <anchor x="387" y="740" name="_top"/>
  <outline>
    <contour>
      <point x="302" y="898" type="curve" smooth="yes"/>
      <point x="397" y="814" type="line"/>
      <point x="397" y="793" type="line"/>
      <point x="373" y="793" type="line"/>
      <point x="235" y="868" type="line" smooth="yes"/>
      <point x="202" y="885"/>
      <point x="180" y="897"/>
      <point x="180" y="921" type="curve" smooth="yes"/>
      <point x="180" y="941"/>
      <point x="194" y="954"/>
      <point x="218" y="954" type="curve" smooth="yes"/>
      <point x="248" y="954"/>
      <point x="271" y="927"/>
    </contour>
  </outline>
</glyph>
<glyph name="guarani.proportional" format="2">
  <advance width="731"/>
  <outline>
    <contour>
      <point x="352" y="790" type="line"/>
      <point x="352" y="695" type="line"/>
      <point x="354" y="685" type="line"/>
      <point x="354" y="32" type="line"/>
      <point x="352" y="21" type="line"/>
      <point x="352" y="-120" type="line"/>
      <point x="394" y="-120" type="line"/>
      <point x="394" y="22" type="line"/>
      <point x="392" y="32" type="line"/>
      <point x="392" y="681" type="line"/>
      <point x="394" y="699" type="line"/>
      <point x="394" y="790" type="line"/>
    </contour>
    <contour>
      <point x="389" y="10" type="curve" smooth="yes"/>
      <point x="491" y="10"/>
      <point x="593" y="56"/>
      <point x="630" y="88" type="curve"/>
      <point x="630" y="282" type="line" smooth="yes"/>
      <point x="630.0" y="311.0"/>
      <point x="650" y="318"/>
      <point x="683" y="318" type="curve" smooth="yes"/>
      <point x="696" y="318" type="line"/>
      <point x="696" y="358" type="line"/>
      <point x="516" y="358" type="line"/>
      <point x="516" y="318" type="line"/>
      <point x="528" y="318" type="line" smooth="yes"/>
      <point x="561" y="318"/>
      <point x="582.0" y="311.0"/>
      <point x="582" y="282" type="curve" smooth="yes"/>
      <point x="582" y="108" type="line"/>
      <point x="558" y="91"/>
      <point x="498" y="52"/>
      <point x="388" y="52" type="curve" smooth="yes"/>
      <point x="203" y="52"/>
      <point x="110" y="146"/>
      <point x="110" y="355" type="curve" smooth="yes"/>
      <point x="110" y="559"/>
      <point x="198" y="659"/>
      <point x="398" y="659" type="curve" smooth="yes"/>
      <point x="448" y="659"/>
      <point x="564" y="651"/>
      <point x="617" y="607" type="curve"/>
      <point x="625" y="628"/>
      <point x="613" y="642"/>
      <point x="584" y="652" type="curve"/>
      <point x="584" y="516" type="line"/>
      <point x="636" y="516" type="line"/>
      <point x="636" y="651" type="line"/>
      <point x="586" y="680"/>
      <point x="494" y="700"/>
      <point x="398" y="700" type="curve" smooth="yes"/>
      <point x="172" y="700"/>
      <point x="54" y="577"/>
      <point x="54" y="355" type="curve" smooth="yes"/>
      <point x="54" y="126"/>
      <point x="172" y="10"/>
    </contour>
  </outline>
</glyph>
<glyph name="heart" format="2">
  <advance width="959"/>
  <outline>
    <contour>
      <point x="467" y="-10" type="line"/>
      <point x="492" y="-10" type="line"/>
      <point x="753" y="273" type="line" smooth="yes"/>
      <point x="845" y="373"/>
      <point x="885" y="434"/>
      <point x="885" y="525" type="curve" smooth="yes"/>
      <point x="885.0" y="632.0"/>
      <point x="815" y="710"/>
      <point x="692" y="710" type="curve" smooth="yes"/>
      <point x="583" y="710"/>
      <point x="520" y="657"/>
      <point x="480" y="569" type="curve"/>
      <point x="439" y="657"/>
      <point x="375" y="710"/>
      <point x="267" y="710" type="curve" smooth="yes"/>
      <point x="144" y="710"/>
      <point x="74" y="632"/>
      <point x="74" y="525" type="curve" smooth="yes"/>
      <point x="74.0" y="434.0"/>
      <point x="114" y="373"/>
      <point x="206" y="273" type="curve" smooth="yes"/>
    </contour>
  </outline>
</glyph>
<glyph name="heartsuitwhite" format="2">
  <advance width="959"/>
  <outline>
    <contour>
      <point x="474" y="458" type="curve"/>
      <point x="484" y="458" type="line"/>
      <point x="525" y="573"/>
      <point x="586" y="659"/>
      <point x="688" y="659" type="curve" smooth="yes"/>
      <point x="771" y="659"/>
      <point x="823" y="612"/>
      <point x="823" y="528" type="curve"/>
      <point x="823" y="451"/>
      <point x="789" y="399"/>
      <point x="712" y="315" type="curve" smooth="yes"/>
      <point x="484" y="65" type="line"/>
      <point x="475" y="65" type="line"/>
      <point x="248" y="315" type="line" smooth="yes"/>
      <point x="171" y="400"/>
      <point x="136" y="451"/>
      <point x="136" y="528" type="curve" smooth="yes"/>
      <point x="136.0" y="612.0"/>
      <point x="188" y="659"/>
      <point x="271" y="659" type="curve" smooth="yes"/>
      <point x="373" y="659"/>
      <point x="433" y="573"/>
    </contour>
    <contour>
      <point x="492" y="-10" type="line"/>
      <point x="753" y="273" type="line" smooth="yes"/>
      <point x="845" y="373"/>
      <point x="885" y="434"/>
      <point x="885" y="525" type="curve" smooth="yes"/>
      <point x="885.0" y="632.0"/>
      <point x="815" y="710"/>
      <point x="692" y="710" type="curve" smooth="yes"/>
      <point x="583" y="710"/>
      <point x="520" y="657"/>
      <point x="480" y="569" type="curve"/>
      <point x="439" y="657"/>
      <point x="375" y="710"/>
      <point x="267" y="710" type="curve" smooth="yes"/>
      <point x="144" y="710"/>
      <point x="74" y="632"/>
      <point x="74" y="525" type="curve" smooth="yes"/>
      <point x="74.0" y="434.0"/>
      <point x="114" y="373"/>
      <point x="206" y="273" type="curve" smooth="yes"/>
      <point x="467" y="-10" type="line"/>
    </contour>
  </outline>
</glyph>
<glyph name="lira.proportional" format="2">
  <advance width="654"/>
  <outline>
    <contour>
      <point x="57" y="465" type="line"/>
      <point x="57" y="429" type="line"/>
      <point x="477" y="429" type="line"/>
      <point x="477" y="465" type="line"/>
    </contour>
    <contour>
      <point x="57" y="296" type="line"/>
      <point x="57" y="260" type="line"/>
      <point x="477" y="260" type="line"/>
      <point x="477" y="296" type="line"/>
    </contour>
    <contour>
      <point x="57" y="-9" type="line"/>
      <point x="193" y="61"/>
      <point x="266" y="133"/>
      <point x="266" y="259" type="curve" smooth="yes"/>
      <point x="266" y="401"/>
      <point x="176" y="440"/>
      <point x="176" y="553" type="curve" smooth="yes"/>
      <point x="176" y="649"/>
      <point x="256" y="692"/>
      <point x="364" y="692" type="curve"/>
      <point x="427" y="692"/>
      <point x="495" y="680"/>
      <point x="534" y="655" type="curve"/>
      <point x="530" y="672"/>
      <point x="520" y="708"/>
      <point x="504" y="710" type="curve"/>
      <point x="504" y="592" type="line"/>
      <point x="556" y="592" type="line"/>
      <point x="556" y="697" type="line"/>
      <point x="523" y="716"/>
      <point x="453" y="735"/>
      <point x="365" y="735" type="curve"/>
      <point x="228" y="735"/>
      <point x="124" y="676"/>
      <point x="124" y="543" type="curve" smooth="yes"/>
      <point x="124" y="423"/>
      <point x="219" y="373"/>
      <point x="219" y="252" type="curve" smooth="yes"/>
      <point x="219" y="159"/>
      <point x="165" y="98"/>
      <point x="57" y="43" type="curve"/>
    </contour>
    <contour>
      <point x="432" y="-10" type="curve"/>
      <point x="526" y="-10"/>
      <point x="569" y="53"/>
      <point x="585" y="170" type="curve"/>
      <point x="540" y="178" type="line"/>
      <point x="522" y="80"/>
      <point x="498" y="38"/>
      <point x="433" y="38" type="curve"/>
      <point x="363" y="38"/>
      <point x="325" y="94"/>
      <point x="252" y="191" type="curve"/>
      <point x="241" y="187"/>
      <point x="229" y="159"/>
      <point x="232" y="143" type="curve"/>
      <point x="308" y="48"/>
      <point x="337" y="-10"/>
    </contour>
  </outline>
</glyph>
<glyph name="nine.oldtab" format="2">
  <advance width="680"/>
  <outline>
    <contour>
      <point x="118" y="-60" type="line"/>
      <point x="385" y="-37"/>
      <point x="553" y="65"/>
      <point x="553" y="344" type="curve" smooth="yes"/>
      <point x="553" y="529"/>
      <point x="455" y="605"/>
      <point x="330" y="605" type="curve" smooth="yes"/>
      <point x="179" y="605"/>
      <point x="124" y="511"/>
      <point x="124" y="396" type="curve" smooth="yes"/>
      <point x="124.0" y="290.0"/>
      <point x="161" y="211"/>
      <point x="299" y="211" type="curve" smooth="yes"/>
      <point x="419" y="211"/>
      <point x="492" y="266"/>
      <point x="575" y="406" type="curve"/>
      <point x="575" y="365" type="line"/>
      <point x="520" y="233"/>
      <point x="415" y="167"/>
      <point x="292" y="167" type="curve" smooth="yes"/>
      <point x="148" y="167"/>
      <point x="70" y="245"/>
      <point x="70" y="396" type="curve" smooth="yes"/>
      <point x="70" y="542.0"/>
      <point x="163" y="649"/>
      <point x="334" y="649" type="curve" smooth="yes"/>
      <point x="480" y="649"/>
      <point x="603" y="563"/>
      <point x="603" y="344" type="curve" smooth="yes"/>
      <point x="603" y="45"/>
      <point x="407" y="-76"/>
      <point x="124" y="-105" type="curve"/>
    </contour>
  </outline>
</glyph>
<glyph name="one.den" format="2">
  <advance width="490"/>
  <outline>
    <contour>
      <point x="267" y="62" type="curve" smooth="yes"/>
      <point x="267" y="415" type="line"/>
      <point x="238" y="415" type="line"/>
      <point x="214" y="368"/>
      <point x="183" y="351"/>
      <point x="90" y="350" type="curve"/>
      <point x="90" y="306" type="line"/>
      <point x="172" y="305"/>
      <point x="218" y="335"/>
      <point x="232" y="377" type="curve"/>
      <point x="218" y="377" type="line"/>
      <point x="218" y="62" type="line" smooth="yes"/>
      <point x="218" y="40"/>
      <point x="187" y="36"/>
      <point x="141" y="36" type="curve" smooth="yes"/>
      <point x="102" y="36" type="line"/>
      <point x="102" y="0" type="line"/>
      <point x="380" y="0" type="line"/>
      <point x="380" y="36" type="line"/>
      <point x="350" y="36" type="line" smooth="yes"/>
      <point x="299" y="36"/>
      <point x="267" y="40"/>
    </contour>
  </outline>
</glyph>
<glyph name="one.oldprop" format="2">
  <advance width="539"/>
  <outline>
    <contour>
      <point x="339" y="80" type="curve" smooth="yes"/>
      <point x="339" y="639" type="line"/>
      <point x="296" y="639" type="line"/>
      <point x="268" y="558"/>
      <point x="185" y="532"/>
      <point x="94" y="529" type="curve"/>
      <point x="94" y="480" type="line"/>
      <point x="176" y="480"/>
      <point x="289" y="522"/>
      <point x="307" y="594" type="curve"/>
      <point x="299" y="597"/>
      <point x="302" y="580"/>
      <point x="291" y="580" type="curve"/>
      <point x="291" y="80" type="line" smooth="yes"/>
      <point x="291" y="50"/>
      <point x="269" y="40"/>
      <point x="201" y="40" type="curve" smooth="yes"/>
      <point x="111" y="40" type="line"/>
      <point x="111" y="0" type="line"/>
      <point x="490" y="0" type="line"/>
      <point x="490" y="40" type="line"/>
      <point x="429" y="40" type="line" smooth="yes"/>
      <point x="369" y="40"/>
      <point x="339" y="50"/>
    </contour>
  </outline>
</glyph>
<glyph name="peseta.proportional" format="2">
  <advance width="833"/>
  <outline>
    <contour>
      <point x="42" y="0" type="line"/>
      <point x="267" y="0" type="line"/>
      <point x="267" y="40" type="line"/>
      <point x="250" y="40" type="line" smooth="yes"/>
      <point x="210.0" y="40"/>
      <point x="171" y="43"/>
      <point x="171" y="50" type="curve" smooth="yes"/>
      <point x="171" y="249" type="line"/>
      <point x="250" y="249" type="line" smooth="yes"/>
      <point x="393.0" y="249.0"/>
      <point x="484" y="340"/>
      <point x="484" y="486" type="curve" smooth="yes"/>
      <point x="484" y="632"/>
      <point x="397.0" y="710.0"/>
      <point x="255" y="710" type="curve" smooth="yes"/>
      <point x="42" y="710" type="line"/>
      <point x="42" y="670" type="line"/>
      <point x="53" y="670" type="line" smooth="yes"/>
      <point x="94.0" y="670.0"/>
      <point x="122.0" y="663.0"/>
      <point x="122" y="634" type="curve" smooth="yes"/>
      <point x="122" y="76" type="line" smooth="yes"/>
      <point x="122" y="47"/>
      <point x="94.0" y="40"/>
      <point x="53" y="40" type="curve" smooth="yes"/>
      <point x="42" y="40" type="line"/>
    </contour>
    <contour>
      <point x="254" y="670" type="line" smooth="yes"/>
      <point x="374.0" y="670.0"/>
      <point x="432" y="610"/>
      <point x="432" y="485" type="curve" smooth="yes"/>
      <point x="432" y="360"/>
      <point x="373.0" y="289.0"/>
      <point x="249" y="289" type="curve" smooth="yes"/>
      <point x="171" y="289" type="line"/>
      <point x="171" y="670" type="line"/>
    </contour>
    <contour>
      <point x="630" y="555" type="line"/>
      <point x="593" y="539" type="line"/>
      <point x="593" y="113" type="line" smooth="yes"/>
      <point x="593.0" y="17.0"/>
      <point x="649" y="-12"/>
      <point x="724" y="-12" type="curve" smooth="yes"/>
      <point x="763" y="-12"/>
      <point x="791" y="-4"/>
      <point x="801" y="-2" type="curve"/>
      <point x="801" y="38" type="line"/>
      <point x="796" y="37"/>
      <point x="766" y="29"/>
      <point x="729" y="29" type="curve" smooth="yes"/>
      <point x="679" y="29"/>
      <point x="641.0" y="42.0"/>
      <point x="641" y="113" type="curve" smooth="yes"/>
      <point x="641" y="690" type="line"/>
      <point x="600" y="690" type="line"/>
      <point x="600" y="623" type="line" smooth="yes"/>
      <point x="600" y="562"/>
      <point x="581" y="551"/>
      <point x="544" y="551" type="curve" smooth="yes"/>
      <point x="473" y="551" type="line"/>
      <point x="473" y="515" type="line"/>
      <point x="808" y="515" type="line"/>
      <point x="808" y="555" type="line"/>
    </contour>
  </outline>
</glyph>
<glyph name="ring.uc" format="2">
  <advance width="530"/>
  <anchor x="262.5" y="740" name="_top"/>
  <outline>
    <contour>
      <point x="187.5" y="900" type="curve" smooth="yes"/>
      <point x="187.5" y="948.0"/>
      <point x="214.5" y="978"/>
      <point x="262.5" y="978" type="curve" smooth="yes"/>
      <point x="310.5" y="978"/>
      <point x="337.5" y="948"/>
      <point x="337.5" y="900" type="curve" smooth="yes"/>
      <point x="337.5" y="852.0"/>
      <point x="310.5" y="821"/>
      <point x="262.5" y="821" type="curve" smooth="yes"/>
      <point x="214.5" y="821"/>
      <point x="187.5" y="852"/>
    </contour>
    <contour>
      <point x="386.0" y="900" type="curve" smooth="yes"/>
      <point x="386.0" y="971.0"/>
      <point x="337.0" y="1016"/>
      <point x="262.0" y="1016" type="curve" smooth="yes"/>
      <point x="188.0" y="1016"/>
      <point x="139.0" y="971"/>
      <point x="139.0" y="900" type="curve" smooth="yes"/>
      <point x="139.0" y="829.0"/>
      <point x="188.0" y="783"/>
      <point x="262.0" y="783" type="curve" smooth="yes"/>
      <point x="337.0" y="783"/>
      <point x="386.0" y="829"/>
    </contour>
  </outline>
</glyph>
<glyph name="ringhalfright" format="2">
  <advance width="530"/>
  <anchor x="268" y="566" name="_top"/>
  <outline>
    <contour>
      <point x="277" y="827" type="line"/>
      <point x="322" y="827"/>
      <point x="355" y="804"/>
      <point x="355" y="753" type="curve" smooth="yes"/>
      <point x="355" y="702"/>
      <point x="322" y="679"/>
      <point x="277" y="679" type="curve"/>
      <point x="277" y="644" type="line"/>
      <point x="351" y="644"/>
      <point x="400" y="689"/>
      <point x="400" y="753" type="curve" smooth="yes"/>
      <point x="400" y="817"/>
      <point x="351" y="862"/>
      <point x="277" y="862" type="curve"/>
    </contour>
  </outline>
</glyph>
<glyph name="ruble.proportional" format="2">
  <advance width="661"/>
  <outline>
    <contour>
      <point x="70" y="384" type="line"/>
      <point x="386" y="384" type="line" smooth="yes"/>
      <point x="505.0" y="384.0"/>
      <point x="564" y="435"/>
      <point x="564" y="536" type="curve" smooth="yes"/>
      <point x="564.0" y="625.0"/>
      <point x="513.0" y="670.0"/>
      <point x="392" y="670" type="curve" smooth="yes"/>
      <point x="220" y="670" type="line"/>
      <point x="220" y="50" type="line" smooth="yes"/>
      <point x="220.0" y="43.0"/>
      <point x="266" y="40"/>
      <point x="302" y="40" type="curve" smooth="yes"/>
      <point x="331" y="40" type="line"/>
      <point x="331" y="0" type="line"/>
      <point x="70" y="0" type="line"/>
      <point x="70" y="40" type="line"/>
      <point x="81" y="40" type="line" smooth="yes"/>
      <point x="133" y="40"/>
      <point x="171.0" y="47.0"/>
      <point x="171" y="76" type="curve" smooth="yes"/>
      <point x="171" y="634" type="line" smooth="yes"/>
      <point x="171" y="663"/>
      <point x="133" y="670"/>
      <point x="81" y="670" type="curve" smooth="yes"/>
      <point x="70" y="670" type="line"/>
      <point x="70" y="710" type="line"/>
      <point x="384" y="710" type="line" smooth="yes"/>
      <point x="547.0" y="710.0"/>
      <point x="615" y="645"/>
      <point x="615" y="536" type="curve" smooth="yes"/>
      <point x="615.0" y="416.0"/>
      <point x="534.0" y="344.0"/>
      <point x="379" y="344" type="curve" smooth="yes"/>
      <point x="70" y="344" type="line"/>
    </contour>
    <contour>
      <point x="506" y="185" type="line"/>
      <point x="70" y="185" type="line"/>
      <point x="70" y="221" type="line"/>
      <point x="506" y="221" type="line"/>
    </contour>
  </outline>
</glyph>
<glyph name="seven.den" format="2">
  <advance width="513"/>
  <outline>
    <contour>
      <point x="228" y="375" type="line" smooth="yes"/>
      <point x="171" y="375"/>
      <point x="147" y="375"/>
      <point x="144" y="351" type="curve" smooth="yes"/>
      <point x="138" y="294" type="line"/>
      <point x="100" y="294" type="line"/>
      <point x="100" y="415" type="line"/>
      <point x="433" y="415" type="line"/>
      <point x="433" y="387" type="line"/>
      <point x="347" y="327"/>
      <point x="282" y="202"/>
      <point x="269" y="0" type="curve"/>
      <point x="214" y="0" type="line"/>
      <point x="232" y="183"/>
      <point x="324" y="351"/>
      <point x="399" y="391" type="curve"/>
      <point x="402" y="375" type="line"/>
    </contour>
  </outline>
</glyph>
<glyph name="six.den" format="2">
  <advance width="513"/>
  <outline>
    <contour>
      <point x="364" y="405" type="line"/>
      <point x="214" y="385"/>
      <point x="143" y="330"/>
      <point x="143" y="169" type="curve" smooth="yes"/>
      <point x="143" y="70"/>
      <point x="186" y="29"/>
      <point x="260" y="29" type="curve" smooth="yes"/>
      <point x="336" y="29"/>
      <point x="368" y="73"/>
      <point x="368" y="142" type="curve" smooth="yes"/>
      <point x="368" y="218"/>
      <point x="333" y="249"/>
      <point x="273" y="249" type="curve" smooth="yes"/>
      <point x="204.0" y="249.0"/>
      <point x="160" y="204"/>
      <point x="131" y="144" type="curve"/>
      <point x="124" y="169" type="line"/>
      <point x="147" y="219"/>
      <point x="198" y="284"/>
      <point x="282" y="284" type="curve" smooth="yes"/>
      <point x="369.0" y="284.0"/>
      <point x="416" y="232"/>
      <point x="416" y="144" type="curve" smooth="yes"/>
      <point x="416" y="49"/>
      <point x="356" y="-6"/>
      <point x="260" y="-6" type="curve" smooth="yes"/>
      <point x="158" y="-6"/>
      <point x="97" y="52"/>
      <point x="97" y="173" type="curve" smooth="yes"/>
      <point x="97" y="328"/>
      <point x="183" y="418"/>
      <point x="357" y="436" type="curve"/>
    </contour>
  </outline>
</glyph>
<glyph name="sterling.proportional" format="2">
  <advance width="654"/>
  <outline>
    <contour>
      <point x="57" y="368" type="line"/>
      <point x="57" y="329" type="line"/>
      <point x="477" y="329" type="line"/>
      <point x="477" y="368" type="line"/>
    </contour>
    <contour>
      <point x="57" y="-9" type="line"/>
      <point x="193" y="61"/>
      <point x="266" y="133"/>
      <point x="266" y="259" type="curve" smooth="yes"/>
      <point x="266" y="401"/>
      <point x="176" y="440"/>
      <point x="176" y="553" type="curve" smooth="yes"/>
      <point x="176" y="649"/>
      <point x="256" y="692"/>
      <point x="364" y="692" type="curve"/>
      <point x="427" y="692"/>
      <point x="495" y="680"/>
      <point x="534" y="655" type="curve"/>
      <point x="530" y="672"/>
      <point x="520" y="708"/>
      <point x="504" y="710" type="curve"/>
      <point x="504" y="562" type="line"/>
      <point x="556" y="562" type="line"/>
      <point x="556" y="697" type="line"/>
      <point x="523" y="716"/>
      <point x="453" y="735"/>
      <point x="365" y="735" type="curve"/>
      <point x="228" y="735"/>
      <point x="124" y="676"/>
      <point x="124" y="543" type="curve" smooth="yes"/>
      <point x="124" y="423"/>
      <point x="219" y="373"/>
      <point x="219" y="252" type="curve" smooth="yes"/>
      <point x="219" y="159"/>
      <point x="165" y="98"/>
      <point x="57" y="43" type="curve"/>
    </contour>
    <contour>
      <point x="442" y="-10" type="curve"/>
      <point x="536" y="-10"/>
      <point x="589" y="53"/>
      <point x="605" y="170" type="curve"/>
      <point x="560" y="178" type="line"/>
      <point x="542" y="80"/>
      <point x="508" y="38"/>
      <point x="443" y="38" type="curve"/>
      <point x="373" y="38"/>
      <point x="325" y="94"/>
      <point x="252" y="191" type="curve"/>
      <point x="241" y="187"/>
      <point x="229" y="159"/>
      <point x="232" y="143" type="curve"/>
      <point x="308" y="48"/>
      <point x="347" y="-10"/>
    </contour>
  </outline>
</glyph>
<glyph name="three.oldprop" format="2">
  <advance width="679"/>
  <outline>
    <contour>
      <point x="374" y="297" type="line"/>
      <point x="558" y="286"/>
      <point x="603" y="217"/>
      <point x="603" y="122" type="curve" smooth="yes"/>
      <point x="603" y="-8"/>
      <point x="497" y="-90"/>
      <point x="336" y="-90" type="curve" smooth="yes"/>
      <point x="177" y="-90"/>
      <point x="94" y="-28"/>
      <point x="54" y="70" type="curve"/>
      <point x="105" y="93" type="line"/>
      <point x="138" y="19"/>
      <point x="191" y="-45"/>
      <point x="336" y="-45" type="curve" smooth="yes"/>
      <point x="476" y="-45"/>
      <point x="544" y="13"/>
      <point x="544" y="120" type="curve" smooth="yes"/>
      <point x="544" y="218"/>
      <point x="502" y="274"/>
      <point x="318" y="274" type="curve" smooth="yes"/>
      <point x="225" y="274" type="line"/>
      <point x="225" y="318" type="line"/>
      <point x="303" y="318" type="line" smooth="yes"/>
      <point x="451" y="318"/>
      <point x="520" y="375"/>
      <point x="520" y="471" type="curve" smooth="yes"/>
      <point x="520" y="569"/>
      <point x="456" y="604"/>
      <point x="352" y="604" type="curve" smooth="yes"/>
      <point x="253" y="604"/>
      <point x="194" y="584"/>
      <point x="148" y="552" type="curve"/>
      <point x="133" y="558"/>
      <point x="142" y="586"/>
      <point x="174" y="590" type="curve"/>
      <point x="174" y="443" type="line"/>
      <point x="122" y="443" type="line"/>
      <point x="122" y="591" type="line"/>
      <point x="153" y="612"/>
      <point x="232" y="648"/>
      <point x="351" y="648" type="curve" smooth="yes"/>
      <point x="495" y="648"/>
      <point x="573" y="594"/>
      <point x="573" y="482" type="curve" smooth="yes"/>
      <point x="573" y="383"/>
      <point x="508" y="315"/>
      <point x="379" y="301" type="curve"/>
      <point x="404" y="312" type="line"/>
      <point x="404" y="282" type="line"/>
    </contour>
  </outline>
</glyph>
<glyph name="two.den" format="2">
  <advance width="492"/>
  <outline>
    <contour>
      <point x="281" y="37" type="line" smooth="yes"/>
      <point x="339" y="37"/>
      <point x="357" y="37"/>
      <point x="361" y="61" type="curve" smooth="yes"/>
      <point x="369" y="113" type="line"/>
      <point x="402" y="113" type="line"/>
      <point x="402" y="0" type="line"/>
      <point x="70" y="0" type="line"/>
      <point x="70" y="31" type="line"/>
      <point x="225" y="132"/>
      <point x="343" y="184"/>
      <point x="343" y="298" type="curve" smooth="yes"/>
      <point x="343" y="353"/>
      <point x="310" y="382"/>
      <point x="244" y="382" type="curve" smooth="yes"/>
      <point x="204" y="382"/>
      <point x="158" y="373"/>
      <point x="137" y="355" type="curve"/>
      <point x="138" y="368"/>
      <point x="146" y="387"/>
      <point x="148" y="389" type="curve"/>
      <point x="148" y="282" type="line"/>
      <point x="101" y="282" type="line"/>
      <point x="101" y="383" type="line"/>
      <point x="127" y="399"/>
      <point x="184" y="420"/>
      <point x="244" y="420" type="curve" smooth="yes"/>
      <point x="339" y="420"/>
      <point x="392" y="378"/>
      <point x="392" y="303" type="curve" smooth="yes"/>
      <point x="392" y="179"/>
      <point x="253" y="112"/>
      <point x="104" y="20" type="curve"/>
      <point x="95" y="22"/>
      <point x="97" y="34"/>
      <point x="106" y="37" type="curve"/>
    </contour>
  </outline>
</glyph>
<glyph name="uni20B4.proportional" format="2">
  <advance width="665"/>
  <outline>
    <contour>
      <point x="49" y="485" type="line"/>
      <point x="49" y="449" type="line"/>
      <point x="616" y="449" type="line"/>
      <point x="616" y="485" type="line"/>
    </contour>
    <contour>
      <point x="49" y="285" type="line"/>
      <point x="49" y="249" type="line"/>
      <point x="616" y="249" type="line"/>
      <point x="616" y="285" type="line"/>
    </contour>
    <contour>
      <point x="346" y="730" type="curve" smooth="yes"/>
      <point x="267.0" y="730.0"/>
      <point x="182" y="704"/>
      <point x="149" y="682" type="curve"/>
      <point x="149" y="577" type="line"/>
      <point x="201" y="577" type="line"/>
      <point x="201" y="701" type="line"/>
      <point x="183" y="691"/>
      <point x="174" y="668"/>
      <point x="178" y="648" type="curve"/>
      <point x="221" y="675"/>
      <point x="286" y="687"/>
      <point x="337" y="687" type="curve" smooth="yes"/>
      <point x="459.0" y="687.0"/>
      <point x="490" y="631"/>
      <point x="490" y="585" type="curve" smooth="yes"/>
      <point x="490" y="530"/>
      <point x="464" y="493"/>
      <point x="416" y="461" type="curve"/>
      <point x="468" y="453" type="line"/>
      <point x="505" y="481"/>
      <point x="547" y="526"/>
      <point x="547" y="592" type="curve" smooth="yes"/>
      <point x="547.0" y="677.0"/>
      <point x="481" y="730"/>
    </contour>
    <contour>
      <point x="341" y="-10" type="curve" smooth="yes"/>
      <point x="436.0" y="-10.0"/>
      <point x="523" y="24"/>
      <point x="556" y="46" type="curve"/>
      <point x="556" y="161" type="line"/>
      <point x="504" y="161" type="line"/>
      <point x="504" y="37" type="line"/>
      <point x="518" y="42"/>
      <point x="530" y="73"/>
      <point x="524" y="80" type="curve"/>
      <point x="477" y="53"/>
      <point x="412" y="33"/>
      <point x="340" y="33" type="curve" smooth="yes"/>
      <point x="237.0" y="33"/>
      <point x="174" y="73"/>
      <point x="174" y="154" type="curve" smooth="yes"/>
      <point x="174.0" y="208.0"/>
      <point x="196" y="253"/>
      <point x="243" y="281" type="curve"/>
      <point x="176" y="273" type="line"/>
      <point x="144" y="244"/>
      <point x="117" y="196"/>
      <point x="117" y="143" type="curve" smooth="yes"/>
      <point x="117" y="39"/>
      <point x="202" y="-10"/>
    </contour>
  </outline>
</glyph>
<glyph name="whitesquare" format="2">
  <advance width="608"/>
  <outline>
    <contour>
      <point x="90" y="104" type="line"/>
      <point x="518" y="104" type="line"/>
      <point x="518" y="522" type="line"/>
      <point x="90" y="522" type="line"/>
    </contour>
    <contour>
      <point x="148" y="159" type="line"/>
      <point x="148" y="467" type="line"/>
      <point x="460" y="467" type="line"/>
      <point x="460" y="159" type="line"/>
    </contour>
  </outline>
</glyph>
<glyph name="zero.linprop" format="2">
  <advance width="642"/>
  <outline>
    <contour>
      <point x="321" y="-11" type="curve" smooth="yes"/>
      <point x="497" y="-11"/>
      <point x="587" y="123"/>
      <point x="587" y="362" type="curve" smooth="yes"/>
      <point x="587" y="601"/>
      <point x="497" y="735"/>
      <point x="321" y="735" type="curve" smooth="yes"/>
      <point x="145" y="735"/>
      <point x="55" y="601"/>
      <point x="55" y="362" type="curve" smooth="yes"/>
      <point x="55" y="123"/>
      <point x="145" y="-11"/>
    </contour>
    <contour>
      <point x="321" y="33" type="curve" smooth="yes"/>
      <point x="178" y="33"/>
      <point x="111" y="154"/>
      <point x="111" y="362" type="curve" smooth="yes"/>
      <point x="111" y="570"/>
      <point x="178" y="692"/>
      <point x="321" y="692" type="curve" smooth="yes"/>
      <point x="465" y="692"/>
      <point x="531" y="570"/>
      <point x="531" y="362" type="curve" smooth="yes"/>
      <point x="531" y="154"/>
      <point x="465" y="33"/>
    </contour>
  </outline>
</glyph>
<glyph name="zero.slash" format="2">
  <advance width="720"/>
  <outline>
    <contour>
      <point x="139.0" y="103.0" type="line"/>
      <point x="605.0" y="498.0" type="line"/>
      <point x="583.0" y="535.0" type="line"/>
      <point x="115.0" y="137.0" type="line"/>
    </contour>
    <contour>
      <point x="360.0" y="-11.0" type="curve" smooth="yes"/>
      <point x="550.0" y="-11.0"/>
      <point x="654.0" y="108.0"/>
      <point x="654.0" y="319.0" type="curve" smooth="yes"/>
      <point x="654.0" y="530.0"/>
      <point x="550.0" y="649.0"/>
      <point x="360.0" y="649.0" type="curve" smooth="yes"/>
      <point x="170.0" y="649.0"/>
      <point x="66.0" y="530.0"/>
      <point x="66.0" y="319.0" type="curve" smooth="yes"/>
      <point x="66.0" y="108.0"/>
      <point x="170.0" y="-11.0"/>
    </contour>
    <contour>
      <point x="360.0" y="30.0" type="curve" smooth="yes"/>
      <point x="193.0" y="30.0"/>
      <point x="121.0" y="138.0"/>
      <point x="121.0" y="319.0" type="curve" smooth="yes"/>
      <point x="121.0" y="500.0"/>
      <point x="193.0" y="608.0"/>
      <point x="360.0" y="608.0" type="curve" smooth="yes"/>
      <point x="526.0" y="608.0"/>
      <point x="599.0" y="500.0"/>
      <point x="599.0" y="319.0" type="curve" smooth="yes"/>
      <point x="599.0" y="138.0"/>
      <point x="526.0" y="30.0"/>
    </contour>
  </outline>
</glyph>
<glyph name="zero.slashlin" format="2">
  <advance width="642"/>
  <outline>
    <contour>
      <point x="116.0" y="136.5" type="line"/>
      <point x="550.0" y="551.5" type="line"/>
      <point x="528.0" y="587.5" type="line"/>
      <point x="92.0" y="169.5" type="line"/>
    </contour>
    <contour>
      <point x="321.0" y="-11.0" type="curve" smooth="yes"/>
      <point x="497.0" y="-11.0"/>
      <point x="587.0" y="123.0"/>
      <point x="587.0" y="362.0" type="curve" smooth="yes"/>
      <point x="587.0" y="601.0"/>
      <point x="497.0" y="735.0"/>
      <point x="321.0" y="735.0" type="curve" smooth="yes"/>
      <point x="145.0" y="735.0"/>
      <point x="55.0" y="601.0"/>
      <point x="55.0" y="362.0" type="curve" smooth="yes"/>
      <point x="55.0" y="123.0"/>
      <point x="145.0" y="-11.0"/>
    </contour>
    <contour>
      <point x="321.0" y="32.5" type="curve" smooth="yes"/>
      <point x="178.0" y="32.5"/>
      <point x="111.0" y="153.5"/>
      <point x="111.0" y="361.5" type="curve" smooth="yes"/>
      <point x="111.0" y="569.5"/>
      <point x="178.0" y="691.5"/>
      <point x="321.0" y="691.5" type="curve" smooth="yes"/>
      <point x="465.0" y="691.5"/>
      <point x="531.0" y="569.5"/>
      <point x="531.0" y="361.5" type="curve" smooth="yes"/>
      <point x="531.0" y="153.5"/>
      <point x="465.0" y="32.5"/>
    </contour>
  </outline>
</glyph>
<glyph name="zero.slashold" format="2">
  <advance width="680"/>
  <outline>
    <contour>
      <point x="340.5" y="32.0" type="curve" smooth="yes"/>
      <point x="196.5" y="32.0"/>
      <point x="124.5" y="128.0"/>
      <point x="124.5" y="319.0" type="curve" smooth="yes"/>
      <point x="124.5" y="510.0"/>
      <point x="196.5" y="606.0"/>
      <point x="340.5" y="606.0" type="curve" smooth="yes"/>
      <point x="483.5" y="606.0"/>
      <point x="555.5" y="510.0"/>
      <point x="555.5" y="319.0" type="curve" smooth="yes"/>
      <point x="555.5" y="128.0"/>
      <point x="483.5" y="32.0"/>
    </contour>
    <contour>
      <point x="137.5" y="96.0" type="line"/>
      <point x="566.5" y="505.0" type="line"/>
      <point x="544.5" y="542.0" type="line"/>
      <point x="113.5" y="130.0" type="line"/>
    </contour>
    <contour>
      <point x="340.0" y="-11.0" type="curve" smooth="yes"/>
      <point x="507.0" y="-11.0"/>
      <point x="611.0" y="100.0"/>
      <point x="611.0" y="319.0" type="curve" smooth="yes"/>
      <point x="611.0" y="538.0"/>
      <point x="507.0" y="649.0"/>
      <point x="340.0" y="649.0" type="curve" smooth="yes"/>
      <point x="172.0" y="649.0"/>
      <point x="69.0" y="538.0"/>
      <point x="69.0" y="319.0" type="curve" smooth="yes"/>
      <point x="69.0" y="100.0"/>
      <point x="172.0" y="-11.0"/>
    </contour>
  </outline>
</glyph>
